<svg id="visual" viewBox="0 0 900 600" width="900" height="600" xmlns="http://www.w3.org/2000/svg" xmlns:xlink="http://www.w3.org/1999/xlink" version="1.1"><rect x="0" y="0" width="900" height="600" fill="#1d4070"></rect><g transform="translate(414.1685347009918 345.46603819563927)"><path d="M150.6 -200.4C191.4 -145.2 218.3 -94.2 240.4 -32.9C262.5 28.3 279.8 99.9 250.8 139.7C221.7 179.5 146.4 187.5 82.3 199C18.2 210.5 -34.7 225.5 -75.5 209.7C-116.4 193.9 -145.2 147.2 -166.3 100.8C-187.3 54.4 -200.5 8.4 -191.6 -32.3C-182.6 -73 -151.6 -108.3 -116 -164.5C-80.4 -220.8 -40.2 -297.9 7.3 -306.6C54.9 -315.4 109.7 -255.7 150.6 -200.4" fill="#69faed"></path></g></svg>