<svg id="visual" viewBox="0 0 900 600" width="900" height="600" xmlns="http://www.w3.org/2000/svg" xmlns:xlink="http://www.w3.org/1999/xlink" version="1.1"><rect x="0" y="0" width="900" height="600" fill="#1d4070"></rect><g transform="translate(446.47363501659845 290.2820066026134)"><path d="M208 -240.1C265.6 -199.6 305.7 -130.3 301.2 -66.3C296.8 -2.3 248 56.3 208.6 116.6C169.3 176.9 139.4 238.8 86.8 272.7C34.3 306.7 -40.8 312.6 -86.1 278.1C-131.4 243.6 -146.9 168.7 -189.1 104.7C-231.4 40.8 -300.3 -12.2 -294.1 -52.6C-287.8 -92.9 -206.2 -120.8 -144.7 -160.6C-83.1 -200.4 -41.6 -252.2 16.8 -272.2C75.2 -292.3 150.4 -280.6 208 -240.1" fill="#69faed"></path></g></svg>