<svg id="visual" viewBox="0 0 900 600" width="900" height="600" xmlns="http://www.w3.org/2000/svg" xmlns:xlink="http://www.w3.org/1999/xlink" version="1.1"><path d="M0 370L15 373.7C30 377.3 60 384.7 90 388.3C120 392 150 392 180 393.5C210 395 240 398 270 399.8C300 401.7 330 402.3 360 400C390 397.7 420 392.3 450 386.2C480 380 510 373 540 372.5C570 372 600 378 630 376.3C660 374.7 690 365.3 720 367C750 368.7 780 381.3 810 386.5C840 391.7 870 389.3 885 388.2L900 387L900 601L885 601C870 601 840 601 810 601C780 601 750 601 720 601C690 601 660 601 630 601C600 601 570 601 540 601C510 601 480 601 450 601C420 601 390 601 360 601C330 601 300 601 270 601C240 601 210 601 180 601C150 601 120 601 90 601C60 601 30 601 15 601L0 601Z" fill="#69faed"></path><path d="M0 437L15 441C30 445 60 453 90 447.3C120 441.7 150 422.3 180 412.7C210 403 240 403 270 409.2C300 415.3 330 427.7 360 434.8C390 442 420 444 450 446.5C480 449 510 452 540 444.5C570 437 600 419 630 415.3C660 411.7 690 422.3 720 430C750 437.7 780 442.3 810 439C840 435.7 870 424.3 885 418.7L900 413L900 601L885 601C870 601 840 601 810 601C780 601 750 601 720 601C690 601 660 601 630 601C600 601 570 601 540 601C510 601 480 601 450 601C420 601 390 601 360 601C330 601 300 601 270 601C240 601 210 601 180 601C150 601 120 601 90 601C60 601 30 601 15 601L0 601Z" fill="#33b9c5"></path><path d="M0 481L15 481.7C30 482.3 60 483.7 90 480.2C120 476.7 150 468.3 180 469.2C210 470 240 480 270 479.2C300 478.3 330 466.7 360 462C390 457.3 420 459.7 450 466.7C480 473.7 510 485.3 540 485.8C570 486.3 600 475.7 630 468.8C660 462 690 459 720 456.7C750 454.3 780 452.7 810 454.8C840 457 870 463 885 466L900 469L900 601L885 601C870 601 840 601 810 601C780 601 750 601 720 601C690 601 660 601 630 601C600 601 570 601 540 601C510 601 480 601 450 601C420 601 390 601 360 601C330 601 300 601 270 601C240 601 210 601 180 601C150 601 120 601 90 601C60 601 30 601 15 601L0 601Z" fill="#177b93"></path><path d="M0 512L15 507.8C30 503.7 60 495.3 90 494.5C120 493.7 150 500.3 180 501C210 501.7 240 496.3 270 494.5C300 492.7 330 494.3 360 497.2C390 500 420 504 450 506C480 508 510 508 540 505.7C570 503.3 600 498.7 630 499.5C660 500.3 690 506.7 720 510.2C750 513.7 780 514.3 810 515.3C840 516.3 870 517.7 885 518.3L900 519L900 601L885 601C870 601 840 601 810 601C780 601 750 601 720 601C690 601 660 601 630 601C600 601 570 601 540 601C510 601 480 601 450 601C420 601 390 601 360 601C330 601 300 601 270 601C240 601 210 601 180 601C150 601 120 601 90 601C60 601 30 601 15 601L0 601Z" fill="#0e425b"></path><path d="M0 531L15 536.8C30 542.7 60 554.3 90 554.7C120 555 150 544 180 542.5C210 541 240 549 270 548.8C300 548.7 330 540.3 360 538.3C390 536.3 420 540.7 450 541.3C480 542 510 539 540 537.3C570 535.7 600 535.3 630 538.7C660 542 690 549 720 554.5C750 560 780 564 810 562.3C840 560.7 870 553.3 885 549.7L900 546L900 601L885 601C870 601 840 601 810 601C780 601 750 601 720 601C690 601 660 601 630 601C600 601 570 601 540 601C510 601 480 601 450 601C420 601 390 601 360 601C330 601 300 601 270 601C240 601 210 601 180 601C150 601 120 601 90 601C60 601 30 601 15 601L0 601Z" fill="#001122"></path></svg>