<svg id="visual" viewBox="0 0 900 600" width="900" height="600" xmlns="http://www.w3.org/2000/svg" xmlns:xlink="http://www.w3.org/1999/xlink" version="1.1"><path d="M0 423L15 411.8C30 400.7 60 378.3 90 369.8C120 361.3 150 366.7 180 371.2C210 375.7 240 379.3 270 387C300 394.7 330 406.3 360 405.8C390 405.3 420 392.7 450 386.5C480 380.3 510 380.7 540 386.8C570 393 600 405 630 407.8C660 410.7 690 404.3 720 395.5C750 386.7 780 375.3 810 375.7C840 376 870 388 885 394L900 400L900 601L885 601C870 601 840 601 810 601C780 601 750 601 720 601C690 601 660 601 630 601C600 601 570 601 540 601C510 601 480 601 450 601C420 601 390 601 360 601C330 601 300 601 270 601C240 601 210 601 180 601C150 601 120 601 90 601C60 601 30 601 15 601L0 601Z" fill="#69faed"></path><path d="M0 406L15 407.3C30 408.7 60 411.3 90 416.7C120 422 150 430 180 431.2C210 432.3 240 426.7 270 426.5C300 426.3 330 431.7 360 429.3C390 427 420 417 450 415.7C480 414.3 510 421.7 540 423C570 424.3 600 419.7 630 424.8C660 430 690 445 720 447C750 449 780 438 810 436.5C840 435 870 443 885 447L900 451L900 601L885 601C870 601 840 601 810 601C780 601 750 601 720 601C690 601 660 601 630 601C600 601 570 601 540 601C510 601 480 601 450 601C420 601 390 601 360 601C330 601 300 601 270 601C240 601 210 601 180 601C150 601 120 601 90 601C60 601 30 601 15 601L0 601Z" fill="#27cbdc"></path><path d="M0 449L15 456.3C30 463.7 60 478.3 90 479.7C120 481 150 469 180 463C210 457 240 457 270 455C300 453 330 449 360 452.3C390 455.7 420 466.3 450 468.5C480 470.7 510 464.3 540 460.7C570 457 600 456 630 457.8C660 459.7 690 464.3 720 467.2C750 470 780 471 810 469C840 467 870 462 885 459.5L900 457L900 601L885 601C870 601 840 601 810 601C780 601 750 601 720 601C690 601 660 601 630 601C600 601 570 601 540 601C510 601 480 601 450 601C420 601 390 601 360 601C330 601 300 601 270 601C240 601 210 601 180 601C150 601 120 601 90 601C60 601 30 601 15 601L0 601Z" fill="#009bc1"></path><path d="M0 493L15 494.2C30 495.3 60 497.7 90 503.8C120 510 150 520 180 519.8C210 519.7 240 509.3 270 507.3C300 505.3 330 511.7 360 517.3C390 523 420 528 450 523.2C480 518.3 510 503.7 540 497.3C570 491 600 493 630 495.7C660 498.3 690 501.7 720 507.8C750 514 780 523 810 519.8C840 516.7 870 501.3 885 493.7L900 486L900 601L885 601C870 601 840 601 810 601C780 601 750 601 720 601C690 601 660 601 630 601C600 601 570 601 540 601C510 601 480 601 450 601C420 601 390 601 360 601C330 601 300 601 270 601C240 601 210 601 180 601C150 601 120 601 90 601C60 601 30 601 15 601L0 601Z" fill="#0a6c9c"></path><path d="M0 560L15 561.3C30 562.7 60 565.3 90 561.5C120 557.7 150 547.3 180 541.2C210 535 240 533 270 537.3C300 541.7 330 552.3 360 552.8C390 553.3 420 543.7 450 539.7C480 535.7 510 537.3 540 540.3C570 543.3 600 547.7 630 551.5C660 555.3 690 558.7 720 555.3C750 552 780 542 810 541.8C840 541.7 870 551.3 885 556.2L900 561L900 601L885 601C870 601 840 601 810 601C780 601 750 601 720 601C690 601 660 601 630 601C600 601 570 601 540 601C510 601 480 601 450 601C420 601 390 601 360 601C330 601 300 601 270 601C240 601 210 601 180 601C150 601 120 601 90 601C60 601 30 601 15 601L0 601Z" fill="#1d4070"></path></svg>