<svg id="visual" viewBox="0 0 900 600" width="900" height="600" xmlns="http://www.w3.org/2000/svg" xmlns:xlink="http://www.w3.org/1999/xlink" version="1.1"><rect x="0" y="0" width="900" height="600" fill="#2469c7"></rect><path d="M0 157L15 154C30 151 60 145 90 143.7C120 142.3 150 145.7 180 150C210 154.3 240 159.7 270 166.3C300 173 330 181 360 184.2C390 187.3 420 185.7 450 177.2C480 168.7 510 153.3 540 148.5C570 143.7 600 149.3 630 151.2C660 153 690 151 720 150.2C750 149.3 780 149.7 810 152C840 154.3 870 158.7 885 160.8L900 163L900 0L885 0C870 0 840 0 810 0C780 0 750 0 720 0C690 0 660 0 630 0C600 0 570 0 540 0C510 0 480 0 450 0C420 0 390 0 360 0C330 0 300 0 270 0C240 0 210 0 180 0C150 0 120 0 90 0C60 0 30 0 15 0L0 0Z" fill="#69faed"></path><path d="M0 114L15 113.7C30 113.3 60 112.7 90 118.5C120 124.3 150 136.7 180 140.3C210 144 240 139 270 140.2C300 141.3 330 148.7 360 148C390 147.3 420 138.7 450 137.3C480 136 510 142 540 143.2C570 144.3 600 140.7 630 141C660 141.3 690 145.7 720 142C750 138.3 780 126.7 810 123.7C840 120.7 870 126.3 885 129.2L900 132L900 0L885 0C870 0 840 0 810 0C780 0 750 0 720 0C690 0 660 0 630 0C600 0 570 0 540 0C510 0 480 0 450 0C420 0 390 0 360 0C330 0 300 0 270 0C240 0 210 0 180 0C150 0 120 0 90 0C60 0 30 0 15 0L0 0Z" fill="#33b9c5"></path><path d="M0 102L15 101.2C30 100.3 60 98.7 90 97.8C120 97 150 97 180 98C210 99 240 101 270 101.7C300 102.3 330 101.7 360 104.2C390 106.7 420 112.3 450 115.8C480 119.3 510 120.7 540 121.3C570 122 600 122 630 115.8C660 109.7 690 97.3 720 92.8C750 88.3 780 91.7 810 91.7C840 91.7 870 88.3 885 86.7L900 85L900 0L885 0C870 0 840 0 810 0C780 0 750 0 720 0C690 0 660 0 630 0C600 0 570 0 540 0C510 0 480 0 450 0C420 0 390 0 360 0C330 0 300 0 270 0C240 0 210 0 180 0C150 0 120 0 90 0C60 0 30 0 15 0L0 0Z" fill="#177b93"></path><path d="M0 64L15 64.2C30 64.3 60 64.7 90 64.7C120 64.7 150 64.3 180 63.3C210 62.3 240 60.7 270 64.7C300 68.7 330 78.3 360 77.5C390 76.7 420 65.3 450 61.3C480 57.3 510 60.7 540 63.2C570 65.7 600 67.3 630 71.5C660 75.7 690 82.3 720 83.7C750 85 780 81 810 79.3C840 77.7 870 78.3 885 78.7L900 79L900 0L885 0C870 0 840 0 810 0C780 0 750 0 720 0C690 0 660 0 630 0C600 0 570 0 540 0C510 0 480 0 450 0C420 0 390 0 360 0C330 0 300 0 270 0C240 0 210 0 180 0C150 0 120 0 90 0C60 0 30 0 15 0L0 0Z" fill="#0e425b"></path><path d="M0 33L15 32C30 31 60 29 90 30.2C120 31.3 150 35.7 180 40.3C210 45 240 50 270 50.7C300 51.3 330 47.7 360 46C390 44.3 420 44.7 450 45C480 45.3 510 45.7 540 43.2C570 40.7 600 35.3 630 36.7C660 38 690 46 720 49.8C750 53.7 780 53.3 810 49.3C840 45.3 870 37.7 885 33.8L900 30L900 0L885 0C870 0 840 0 810 0C780 0 750 0 720 0C690 0 660 0 630 0C600 0 570 0 540 0C510 0 480 0 450 0C420 0 390 0 360 0C330 0 300 0 270 0C240 0 210 0 180 0C150 0 120 0 90 0C60 0 30 0 15 0L0 0Z" fill="#001122"></path></svg>