<svg id="visual" viewBox="0 0 900 600" width="900" height="600" xmlns="http://www.w3.org/2000/svg" xmlns:xlink="http://www.w3.org/1999/xlink" version="1.1"><path d="M0 410L10.7 412.2C21.3 414.3 42.7 418.7 64.2 418.8C85.7 419 107.3 415 128.8 404C150.3 393 171.7 375 193 371.5C214.3 368 235.7 379 257 384.8C278.3 390.7 299.7 391.3 321.2 394.2C342.7 397 364.3 402 385.8 403.2C407.3 404.3 428.7 401.7 450 396.2C471.3 390.7 492.7 382.3 514.2 377.5C535.7 372.7 557.3 371.3 578.8 378.5C600.3 385.7 621.7 401.3 643 400.8C664.3 400.3 685.7 383.7 707 380.3C728.3 377 749.7 387 771.2 394.7C792.7 402.3 814.3 407.7 835.8 411C857.3 414.3 878.7 415.7 889.3 416.3L900 417L900 601L889.3 601C878.7 601 857.3 601 835.8 601C814.3 601 792.7 601 771.2 601C749.7 601 728.3 601 707 601C685.7 601 664.3 601 643 601C621.7 601 600.3 601 578.8 601C557.3 601 535.7 601 514.2 601C492.7 601 471.3 601 450 601C428.7 601 407.3 601 385.8 601C364.3 601 342.7 601 321.2 601C299.7 601 278.3 601 257 601C235.7 601 214.3 601 193 601C171.7 601 150.3 601 128.8 601C107.3 601 85.7 601 64.2 601C42.7 601 21.3 601 10.7 601L0 601Z" fill="#69faed"></path><path d="M0 457L10.7 447.5C21.3 438 42.7 419 64.2 409.8C85.7 400.7 107.3 401.3 128.8 411.3C150.3 421.3 171.7 440.7 193 448.3C214.3 456 235.7 452 257 443C278.3 434 299.7 420 321.2 413.7C342.7 407.3 364.3 408.7 385.8 413.5C407.3 418.3 428.7 426.7 450 428.5C471.3 430.3 492.7 425.7 514.2 425.5C535.7 425.3 557.3 429.7 578.8 427.3C600.3 425 621.7 416 643 420.5C664.3 425 685.7 443 707 451.8C728.3 460.7 749.7 460.3 771.2 454.5C792.7 448.7 814.3 437.3 835.8 437.3C857.3 437.3 878.7 448.7 889.3 454.3L900 460L900 601L889.3 601C878.7 601 857.3 601 835.8 601C814.3 601 792.7 601 771.2 601C749.7 601 728.3 601 707 601C685.7 601 664.3 601 643 601C621.7 601 600.3 601 578.8 601C557.3 601 535.7 601 514.2 601C492.7 601 471.3 601 450 601C428.7 601 407.3 601 385.8 601C364.3 601 342.7 601 321.2 601C299.7 601 278.3 601 257 601C235.7 601 214.3 601 193 601C171.7 601 150.3 601 128.8 601C107.3 601 85.7 601 64.2 601C42.7 601 21.3 601 10.7 601L0 601Z" fill="#27cbdc"></path><path d="M0 491L10.7 484.8C21.3 478.7 42.7 466.3 64.2 460C85.7 453.7 107.3 453.3 128.8 454.7C150.3 456 171.7 459 193 464.7C214.3 470.3 235.7 478.7 257 480.3C278.3 482 299.7 477 321.2 477.2C342.7 477.3 364.3 482.7 385.8 485.8C407.3 489 428.7 490 450 489.5C471.3 489 492.7 487 514.2 486.5C535.7 486 557.3 487 578.8 480.7C600.3 474.3 621.7 460.7 643 461C664.3 461.3 685.7 475.7 707 478.5C728.3 481.3 749.7 472.7 771.2 472.8C792.7 473 814.3 482 835.8 486.8C857.3 491.7 878.7 492.3 889.3 492.7L900 493L900 601L889.3 601C878.7 601 857.3 601 835.8 601C814.3 601 792.7 601 771.2 601C749.7 601 728.3 601 707 601C685.7 601 664.3 601 643 601C621.7 601 600.3 601 578.8 601C557.3 601 535.7 601 514.2 601C492.7 601 471.3 601 450 601C428.7 601 407.3 601 385.8 601C364.3 601 342.7 601 321.2 601C299.7 601 278.3 601 257 601C235.7 601 214.3 601 193 601C171.7 601 150.3 601 128.8 601C107.3 601 85.7 601 64.2 601C42.7 601 21.3 601 10.7 601L0 601Z" fill="#009bc1"></path><path d="M0 506L10.7 507.7C21.3 509.3 42.7 512.7 64.2 516.7C85.7 520.7 107.3 525.3 128.8 520.7C150.3 516 171.7 502 193 500C214.3 498 235.7 508 257 511.8C278.3 515.7 299.7 513.3 321.2 514.3C342.7 515.3 364.3 519.7 385.8 517C407.3 514.3 428.7 504.7 450 503.2C471.3 501.7 492.7 508.3 514.2 510.5C535.7 512.7 557.3 510.3 578.8 508.3C600.3 506.3 621.7 504.7 643 507.5C664.3 510.3 685.7 517.7 707 519.5C728.3 521.3 749.7 517.7 771.2 517.8C792.7 518 814.3 522 835.8 520.5C857.3 519 878.7 512 889.3 508.5L900 505L900 601L889.3 601C878.7 601 857.3 601 835.8 601C814.3 601 792.7 601 771.2 601C749.7 601 728.3 601 707 601C685.7 601 664.3 601 643 601C621.7 601 600.3 601 578.8 601C557.3 601 535.7 601 514.2 601C492.7 601 471.3 601 450 601C428.7 601 407.3 601 385.8 601C364.3 601 342.7 601 321.2 601C299.7 601 278.3 601 257 601C235.7 601 214.3 601 193 601C171.7 601 150.3 601 128.8 601C107.3 601 85.7 601 64.2 601C42.7 601 21.3 601 10.7 601L0 601Z" fill="#0a6c9c"></path><path d="M0 553L10.7 550C21.3 547 42.7 541 64.2 541.3C85.7 541.7 107.3 548.3 128.8 551.5C150.3 554.7 171.7 554.3 193 550C214.3 545.7 235.7 537.3 257 533.3C278.3 529.3 299.7 529.7 321.2 531.8C342.7 534 364.3 538 385.8 539.3C407.3 540.7 428.7 539.3 450 541.2C471.3 543 492.7 548 514.2 552.3C535.7 556.7 557.3 560.3 578.8 560.7C600.3 561 621.7 558 643 555.7C664.3 553.3 685.7 551.7 707 549.5C728.3 547.3 749.7 544.7 771.2 546.8C792.7 549 814.3 556 835.8 556C857.3 556 878.7 549 889.3 545.5L900 542L900 601L889.3 601C878.7 601 857.3 601 835.8 601C814.3 601 792.7 601 771.2 601C749.7 601 728.3 601 707 601C685.7 601 664.3 601 643 601C621.7 601 600.3 601 578.8 601C557.3 601 535.7 601 514.2 601C492.7 601 471.3 601 450 601C428.7 601 407.3 601 385.8 601C364.3 601 342.7 601 321.2 601C299.7 601 278.3 601 257 601C235.7 601 214.3 601 193 601C171.7 601 150.3 601 128.8 601C107.3 601 85.7 601 64.2 601C42.7 601 21.3 601 10.7 601L0 601Z" fill="#1d4070"></path></svg>